<svg xmlns="http://www.w3.org/2000/svg" viewBox="0 0 1024 1024" role="img" aria-label="Tidal app icon">
  <defs>
    <linearGradient id="shell" x1="162" y1="92" x2="862" y2="932" gradientUnits="userSpaceOnUse">
      <stop offset="0" stop-color="#fffdf6"/>
      <stop offset="0.48" stop-color="#f3efe5"/>
      <stop offset="1" stop-color="#ded7ca"/>
    </linearGradient>
    <linearGradient id="panel" x1="254" y1="214" x2="770" y2="814" gradientUnits="userSpaceOnUse">
      <stop offset="0" stop-color="#211f34"/>
      <stop offset="0.56" stop-color="#171722"/>
      <stop offset="1" stop-color="#0e1118"/>
    </linearGradient>
    <linearGradient id="wave" x1="250" y1="380" x2="780" y2="650" gradientUnits="userSpaceOnUse">
      <stop offset="0" stop-color="#6be7ff"/>
      <stop offset="0.42" stop-color="#b9a6ff"/>
      <stop offset="1" stop-color="#ff6b6b"/>
    </linearGradient>
    <linearGradient id="green" x1="250" y1="380" x2="780" y2="650" gradientUnits="userSpaceOnUse">
      <stop offset="0" stop-color="#37c98c"/>
      <stop offset="1" stop-color="#89f4c2"/>
    </linearGradient>
    <filter id="outerShadow" x="-20%" y="-20%" width="140%" height="140%">
      <feDropShadow dx="0" dy="34" stdDeviation="42" flood-color="#17131f" flood-opacity="0.22"/>
      <feDropShadow dx="0" dy="8" stdDeviation="12" flood-color="#17131f" flood-opacity="0.16"/>
    </filter>
    <filter id="softGlow" x="-30%" y="-30%" width="160%" height="160%">
      <feGaussianBlur stdDeviation="14" result="blur"/>
      <feColorMatrix in="blur" type="matrix" values="0 0 0 0 0.54 0 0 0 0 0.45 0 0 0 0 1 0 0 0 0.42 0"/>
      <feMerge>
        <feMergeNode/>
        <feMergeNode in="SourceGraphic"/>
      </feMerge>
    </filter>
  </defs>

  <rect width="1024" height="1024" rx="224" fill="url(#shell)"/>
  <path d="M218 170C322 82 478 52 620 88c157 40 278 166 319 322 40 151-1 314-104 426C723 958 539 998 382 937 224 876 112 727 93 558 76 405 117 255 218 170Z" fill="#ffffff" opacity="0.34"/>
  <rect x="168" y="156" width="688" height="712" rx="184" fill="url(#panel)" filter="url(#outerShadow)"/>
  <rect x="212" y="204" width="600" height="616" rx="148" fill="none" stroke="#ffffff" stroke-opacity="0.08" stroke-width="10"/>

  <path d="M300 628c54 0 82-112 138-112 58 0 84 112 142 112 56 0 83-112 139-112" fill="none" stroke="#5b4fd4" stroke-opacity="0.2" stroke-width="88" stroke-linecap="round"/>
  <path d="M298 502c56 0 86-116 144-116 61 0 88 116 149 116 58 0 89-116 147-116" fill="none" stroke="url(#wave)" stroke-width="72" stroke-linecap="round" stroke-linejoin="round" filter="url(#softGlow)"/>
  <path d="M294 636c50 0 76-94 128-94 53 0 78 94 132 94 52 0 77-94 130-94" fill="none" stroke="url(#green)" stroke-width="46" stroke-linecap="round" stroke-linejoin="round" opacity="0.96"/>

  <path d="M316 700h388" stroke="#ffffff" stroke-opacity="0.16" stroke-width="24" stroke-linecap="round"/>
  <path d="M360 700h116" stroke="#ff5d5d" stroke-width="24" stroke-linecap="round"/>
  <path d="M536 700h124" stroke="#37c98c" stroke-width="24" stroke-linecap="round"/>
  <circle cx="512" cy="512" r="42" fill="#fffdf6" opacity="0.94"/>
  <circle cx="512" cy="512" r="18" fill="#5b4fd4"/>
</svg>
